<mxfile host="app.diagrams.net" modified="2021-09-01T09:23:10.749Z" agent="5.0 (Windows NT 10.0; Win64; x64) AppleWebKit/537.36 (KHTML, like Gecko) Chrome/91.0.4472.124 Safari/537.36" etag="182GucTyW_iAGbhQsTh7" version="15.0.3" type="github">
  <diagram id="CM1-hyf30fWBSub1_TTg" name="Page-1">
    <mxGraphModel dx="1422" dy="794" grid="1" gridSize="10" guides="1" tooltips="1" connect="1" arrows="1" fold="1" page="1" pageScale="1" pageWidth="827" pageHeight="1169" math="0" shadow="0">
      <root>
        <mxCell id="0" />
        <mxCell id="1" parent="0" />
        <mxCell id="-qyiJcqOAEezAt1cO93M-11" value="" style="edgeStyle=orthogonalEdgeStyle;rounded=0;orthogonalLoop=1;jettySize=auto;html=1;" edge="1" parent="1" source="-qyiJcqOAEezAt1cO93M-3" target="-qyiJcqOAEezAt1cO93M-6">
          <mxGeometry relative="1" as="geometry" />
        </mxCell>
        <mxCell id="-qyiJcqOAEezAt1cO93M-3" value="预置应用账户" style="rounded=1;whiteSpace=wrap;html=1;" vertex="1" parent="1">
          <mxGeometry x="80" y="40" width="120" height="60" as="geometry" />
        </mxCell>
        <mxCell id="-qyiJcqOAEezAt1cO93M-14" value="" style="edgeStyle=orthogonalEdgeStyle;rounded=0;orthogonalLoop=1;jettySize=auto;html=1;" edge="1" parent="1" source="-qyiJcqOAEezAt1cO93M-4" target="-qyiJcqOAEezAt1cO93M-7">
          <mxGeometry relative="1" as="geometry" />
        </mxCell>
        <mxCell id="-qyiJcqOAEezAt1cO93M-4" value="构造secret数据结构" style="rounded=0;whiteSpace=wrap;html=1;" vertex="1" parent="1">
          <mxGeometry x="80" y="340" width="120" height="60" as="geometry" />
        </mxCell>
        <mxCell id="-qyiJcqOAEezAt1cO93M-13" value="" style="edgeStyle=orthogonalEdgeStyle;rounded=0;orthogonalLoop=1;jettySize=auto;html=1;" edge="1" parent="1" source="-qyiJcqOAEezAt1cO93M-5" target="-qyiJcqOAEezAt1cO93M-4">
          <mxGeometry relative="1" as="geometry" />
        </mxCell>
        <mxCell id="-qyiJcqOAEezAt1cO93M-5" value="初始化k8s客户端" style="rounded=0;whiteSpace=wrap;html=1;" vertex="1" parent="1">
          <mxGeometry x="80" y="240" width="120" height="60" as="geometry" />
        </mxCell>
        <mxCell id="-qyiJcqOAEezAt1cO93M-12" value="" style="edgeStyle=orthogonalEdgeStyle;rounded=0;orthogonalLoop=1;jettySize=auto;html=1;" edge="1" parent="1" source="-qyiJcqOAEezAt1cO93M-6" target="-qyiJcqOAEezAt1cO93M-5">
          <mxGeometry relative="1" as="geometry" />
        </mxCell>
        <mxCell id="-qyiJcqOAEezAt1cO93M-6" value="判断是否存在账户配置文件" style="rhombus;whiteSpace=wrap;html=1;" vertex="1" parent="1">
          <mxGeometry x="100" y="120" width="80" height="80" as="geometry" />
        </mxCell>
        <mxCell id="-qyiJcqOAEezAt1cO93M-15" value="" style="edgeStyle=orthogonalEdgeStyle;rounded=0;orthogonalLoop=1;jettySize=auto;html=1;" edge="1" parent="1" source="-qyiJcqOAEezAt1cO93M-7" target="-qyiJcqOAEezAt1cO93M-9">
          <mxGeometry relative="1" as="geometry" />
        </mxCell>
        <mxCell id="-qyiJcqOAEezAt1cO93M-7" value="基于tmpfs创建secret" style="rounded=0;whiteSpace=wrap;html=1;" vertex="1" parent="1">
          <mxGeometry x="80" y="440" width="120" height="60" as="geometry" />
        </mxCell>
        <mxCell id="-qyiJcqOAEezAt1cO93M-9" value="结束" style="rounded=1;whiteSpace=wrap;html=1;" vertex="1" parent="1">
          <mxGeometry x="80" y="540" width="120" height="60" as="geometry" />
        </mxCell>
        <mxCell id="-qyiJcqOAEezAt1cO93M-29" value="" style="edgeStyle=orthogonalEdgeStyle;rounded=0;orthogonalLoop=1;jettySize=auto;html=1;" edge="1" parent="1" source="-qyiJcqOAEezAt1cO93M-10" target="-qyiJcqOAEezAt1cO93M-21">
          <mxGeometry relative="1" as="geometry" />
        </mxCell>
        <mxCell id="-qyiJcqOAEezAt1cO93M-10" value="应用通过挂载或者环境变量设置secret对象" style="rounded=1;whiteSpace=wrap;html=1;" vertex="1" parent="1">
          <mxGeometry x="570" y="40" width="120" height="60" as="geometry" />
        </mxCell>
        <mxCell id="-qyiJcqOAEezAt1cO93M-18" value="" style="edgeStyle=orthogonalEdgeStyle;rounded=0;orthogonalLoop=1;jettySize=auto;html=1;entryX=1;entryY=0.75;entryDx=0;entryDy=0;" edge="1" parent="1" source="-qyiJcqOAEezAt1cO93M-6" target="-qyiJcqOAEezAt1cO93M-9">
          <mxGeometry relative="1" as="geometry">
            <mxPoint x="180" y="160" as="sourcePoint" />
            <mxPoint x="350" y="570" as="targetPoint" />
            <Array as="points">
              <mxPoint x="250" y="160" />
              <mxPoint x="250" y="585" />
            </Array>
          </mxGeometry>
        </mxCell>
        <mxCell id="-qyiJcqOAEezAt1cO93M-20" value="否" style="edgeLabel;html=1;align=center;verticalAlign=middle;resizable=0;points=[];" vertex="1" connectable="0" parent="-qyiJcqOAEezAt1cO93M-18">
          <mxGeometry x="-0.3908" y="3" relative="1" as="geometry">
            <mxPoint x="-43" y="-96" as="offset" />
          </mxGeometry>
        </mxCell>
        <mxCell id="-qyiJcqOAEezAt1cO93M-30" value="" style="edgeStyle=orthogonalEdgeStyle;rounded=0;orthogonalLoop=1;jettySize=auto;html=1;" edge="1" parent="1" source="-qyiJcqOAEezAt1cO93M-21" target="-qyiJcqOAEezAt1cO93M-22">
          <mxGeometry relative="1" as="geometry" />
        </mxCell>
        <mxCell id="-qyiJcqOAEezAt1cO93M-21" value="通过应用名称获取对应的secret对象" style="rounded=0;whiteSpace=wrap;html=1;" vertex="1" parent="1">
          <mxGeometry x="570" y="140" width="120" height="60" as="geometry" />
        </mxCell>
        <mxCell id="-qyiJcqOAEezAt1cO93M-31" value="" style="edgeStyle=orthogonalEdgeStyle;rounded=0;orthogonalLoop=1;jettySize=auto;html=1;" edge="1" parent="1" source="-qyiJcqOAEezAt1cO93M-22" target="-qyiJcqOAEezAt1cO93M-23">
          <mxGeometry relative="1" as="geometry" />
        </mxCell>
        <mxCell id="-qyiJcqOAEezAt1cO93M-22" value="获取secret对象的username和password" style="rounded=0;whiteSpace=wrap;html=1;" vertex="1" parent="1">
          <mxGeometry x="570" y="240" width="120" height="60" as="geometry" />
        </mxCell>
        <mxCell id="-qyiJcqOAEezAt1cO93M-32" value="" style="edgeStyle=orthogonalEdgeStyle;rounded=0;orthogonalLoop=1;jettySize=auto;html=1;" edge="1" parent="1" source="-qyiJcqOAEezAt1cO93M-23" target="-qyiJcqOAEezAt1cO93M-25">
          <mxGeometry relative="1" as="geometry" />
        </mxCell>
        <mxCell id="-qyiJcqOAEezAt1cO93M-23" value="通过username和password调用SDK获取token接口" style="rounded=0;whiteSpace=wrap;html=1;" vertex="1" parent="1">
          <mxGeometry x="570" y="340" width="120" height="60" as="geometry" />
        </mxCell>
        <mxCell id="-qyiJcqOAEezAt1cO93M-34" value="" style="edgeStyle=orthogonalEdgeStyle;rounded=0;orthogonalLoop=1;jettySize=auto;html=1;" edge="1" parent="1" source="-qyiJcqOAEezAt1cO93M-24" target="-qyiJcqOAEezAt1cO93M-27">
          <mxGeometry relative="1" as="geometry" />
        </mxCell>
        <mxCell id="-qyiJcqOAEezAt1cO93M-24" value="通过该token进行鉴权" style="rounded=0;whiteSpace=wrap;html=1;" vertex="1" parent="1">
          <mxGeometry x="570" y="560" width="120" height="60" as="geometry" />
        </mxCell>
        <mxCell id="-qyiJcqOAEezAt1cO93M-33" value="" style="edgeStyle=orthogonalEdgeStyle;rounded=0;orthogonalLoop=1;jettySize=auto;html=1;" edge="1" parent="1" source="-qyiJcqOAEezAt1cO93M-25" target="-qyiJcqOAEezAt1cO93M-24">
          <mxGeometry relative="1" as="geometry" />
        </mxCell>
        <mxCell id="-qyiJcqOAEezAt1cO93M-36" value="" style="edgeStyle=orthogonalEdgeStyle;rounded=0;orthogonalLoop=1;jettySize=auto;html=1;entryX=-0.017;entryY=0.65;entryDx=0;entryDy=0;entryPerimeter=0;" edge="1" parent="1" source="-qyiJcqOAEezAt1cO93M-25" target="-qyiJcqOAEezAt1cO93M-27">
          <mxGeometry relative="1" as="geometry">
            <mxPoint x="530" y="480" as="targetPoint" />
            <Array as="points">
              <mxPoint x="510" y="480" />
              <mxPoint x="510" y="709" />
            </Array>
          </mxGeometry>
        </mxCell>
        <mxCell id="-qyiJcqOAEezAt1cO93M-42" value="值为空" style="edgeLabel;html=1;align=center;verticalAlign=middle;resizable=0;points=[];" vertex="1" connectable="0" parent="-qyiJcqOAEezAt1cO93M-36">
          <mxGeometry x="-0.673" y="1" relative="1" as="geometry">
            <mxPoint as="offset" />
          </mxGeometry>
        </mxCell>
        <mxCell id="-qyiJcqOAEezAt1cO93M-25" value="检查接口返回值" style="rhombus;whiteSpace=wrap;html=1;" vertex="1" parent="1">
          <mxGeometry x="590" y="440" width="80" height="80" as="geometry" />
        </mxCell>
        <mxCell id="-qyiJcqOAEezAt1cO93M-27" value="结束" style="rounded=1;whiteSpace=wrap;html=1;" vertex="1" parent="1">
          <mxGeometry x="570" y="670" width="120" height="60" as="geometry" />
        </mxCell>
      </root>
    </mxGraphModel>
  </diagram>
</mxfile>
